<?xml version="1.0" encoding="UTF-8" standalone="no" ?>
<!DOCTYPE svg PUBLIC "-//W3C//DTD SVG 1.1//EN" "http://www.w3.org/Graphics/SVG/1.1/DTD/svg11.dtd">
<svg xmlns="http://www.w3.org/2000/svg" xmlns:xlink="http://www.w3.org/1999/xlink" version="1.1" width="1080" height="1080" viewBox="0 0 1080 1080" xml:space="preserve">
<desc>Created with Fabric.js 5.2.4</desc>
<defs>
</defs>
<g transform="matrix(1 0 0 1 540 540)" id="8380bee7-3c95-42c3-82af-c494b99e8238"  >
<rect style="stroke: none; stroke-width: 1; stroke-dasharray: none; stroke-linecap: butt; stroke-dashoffset: 0; stroke-linejoin: miter; stroke-miterlimit: 4; fill: rgb(255,255,255); fill-rule: nonzero; opacity: 1; visibility: hidden;" vector-effect="non-scaling-stroke"  x="-540" y="-540" rx="0" ry="0" width="1080" height="1080" />
</g>
<g transform="matrix(1 0 0 1 540 540)" id="bd83ac68-c735-41fb-a4a0-fa6fd974605f"  >
</g>
<g transform="matrix(1 0 0 1 540 540)"  >
<g style="" vector-effect="non-scaling-stroke"   >
		<g transform="matrix(1 0 0 1 29.52 0)" style="" id="svg_1"  >
		<text xml:space="preserve" font-family="sans-serif" font-size="50" font-style="normal" font-weight="normal" style="stroke: rgb(0,0,0); stroke-width: 0; stroke-dasharray: none; stroke-linecap: butt; stroke-dashoffset: 0; stroke-linejoin: miter; stroke-miterlimit: 4; fill: rgb(255,253,253); fill-rule: nonzero; opacity: 1; white-space: pre;" ><tspan x="-61.12" y="15.71" >KINO</tspan></text>
</g>
		<g transform="matrix(1 0 0 1 -63.64 -1)" id="svg_2"  >
<path style="stroke: rgb(0,0,0); stroke-width: 0; stroke-dasharray: none; stroke-linecap: butt; stroke-dashoffset: 0; stroke-linejoin: miter; stroke-miterlimit: 4; fill: rgb(255,253,253); fill-rule: nonzero; opacity: 1;" vector-effect="non-scaling-stroke"  transform=" translate(-35.96, -38.34)" d="M 35.95801 24.66238 C 28.256880000000002 24.66238 22.01985 30.78371 22.01985 38.34198 C 22.01985 45.89504 28.256880000000002 52.01985 35.95801 52.01985 C 43.65206 52.01985 49.892630000000004 45.895039999999995 49.892630000000004 38.34198 C 49.894400000000005 30.78371 43.65560000000001 24.66238 35.95801 24.66238 z M 35.95801 48.54652 C 30.214910000000003 48.53262 25.57299 43.97681 25.55883 38.343720000000005 C 25.57122 32.70890000000001 30.21492 28.151350000000004 35.95801 28.137450000000005 C 41.69757 28.151350000000004 46.33949 32.70890000000001 46.35188 38.343720000000005 C 46.33949 43.976800000000004 41.69756 48.53262000000001 35.95801 48.54652 z M 35.95801 23.7467 C 36.93703 23.7467 37.728390000000005 22.96828 37.728390000000005 22.00743 L 37.728390000000005 13.57865 C 37.72485 12.61779 36.93526000000001 11.84112 35.95801 11.84112 C 34.97899 11.84112 34.185860000000005 12.62127 34.18763 13.58213 L 34.18763 22.009169999999997 C 34.18763 22.966549999999998 34.978989999999996 23.746699999999997 35.95801 23.746699999999997 z M 41.64623 24.85525 C 41.86753 24.94734 42.097680000000004 24.9873 42.32251 24.989040000000003 C 43.02004 24.989040000000003 43.67685 24.584190000000003 43.96011 23.915240000000004 L 47.24593 16.125880000000002 C 47.61771 15.238000000000003 47.191050000000004 14.223280000000003 46.288160000000005 13.856660000000002 C 45.383500000000005 13.490040000000002 44.34783 13.910520000000002 43.97251000000001 14.796670000000002 L 40.688460000000006 22.587770000000003 C 40.314910000000005 23.473910000000004 40.74334 24.490370000000002 41.64623 24.85525 z M 46.4705 28.0193 C 46.81572 28.35638 47.26894 28.5284 47.72216 28.5284 C 48.175380000000004 28.5284 48.62859 28.35812 48.97382 28.0193 L 55.04621 22.05435 C 55.73843 21.37671 55.73666 20.27685 55.04621 19.59574 C 54.35222 18.9181 53.23158 18.9181 52.54113 19.59922 L 46.470510000000004 25.560699999999997 C 45.778290000000005 26.240079999999995 45.778290000000005 27.339929999999995 46.470510000000004 28.019309999999997 z M 49.69789 32.752340000000004 C 49.97761 33.421290000000006 50.63796 33.824400000000004 51.33195 33.824400000000004 C 51.55679 33.824400000000004 51.78694 33.78096000000001 52.01 33.68887 L 59.94128 30.46227 C 60.84594 30.09565 61.27437 29.07746 60.89905 28.19131 C 60.52373000000001 27.305160000000004 59.489830000000005 26.884680000000003 58.585170000000005 27.253040000000002 L 50.652120000000004 30.479640000000003 C 49.749230000000004 30.848000000000003 49.322570000000006 31.866190000000003 49.69789 32.75233 z M 61.185860000000005 36.594030000000004 L 52.597770000000004 36.59577 C 51.620520000000006 36.59577 50.82739 37.37419 50.830940000000005 38.33504 C 50.830940000000005 39.295899999999996 51.6223 40.07084 52.597770000000004 40.07084 L 61.187630000000006 40.067359999999994 C 62.166650000000004 40.067359999999994 62.956230000000005 39.287209999999995 62.956230000000005 38.329829999999994 C 62.956230000000005 37.36897 62.16310000000001 36.590559999999996 61.18585 36.59403 z M 59.950140000000005 46.19912000000001 L 52.01532 42.97773000000001 C 51.10889 42.609370000000006 50.073220000000006 43.029860000000006 49.701440000000005 43.91774000000001 C 49.327890000000004 44.80562000000001 49.75632 45.82208000000001 50.65921 46.190430000000006 L 58.594030000000004 49.411820000000006 C 58.8171 49.50043000000001 59.047250000000005 49.54214 59.27208 49.54214 C 59.96784 49.54214 60.62642 49.139030000000005 60.90968 48.47008 C 61.28146 47.5822 60.85126 46.56401 59.950140000000005 46.19912 z M 48.984440000000006 48.65426000000001 C 48.29222000000001 47.974880000000006 47.173350000000006 47.974880000000006 46.48113000000001 48.656000000000006 C 45.78891000000001 49.33364 45.79068000000001 50.431760000000004 46.48113000000001 51.111140000000006 L 52.56060000000001 57.069140000000004 C 52.905820000000006 57.40796 53.35727000000001 57.57824 53.810480000000005 57.57824 C 54.263690000000004 57.57824 54.718680000000006 57.40796 55.06391000000001 57.069140000000004 C 55.756130000000006 56.38803000000001 55.752590000000005 55.28817000000001 55.06391000000001 54.610530000000004 L 48.984440000000006 48.65426000000001 z M 43.97251000000001 52.76005000000001 C 43.598960000000005 51.872170000000004 42.56329000000001 51.45342000000001 41.65863000000001 51.820040000000006 C 40.75574000000001 52.18840000000001 40.32731000000001 53.20485000000001 40.702630000000006 54.09273 L 43.99553000000001 61.87688 C 44.27702000000001 62.54583 44.93560000000001 62.94894 45.63313000000001 62.94894 C 45.85974000000001 62.94894 46.08989000000001 62.90724 46.31118000000001 62.81689 C 47.21584000000001 62.45027 47.642500000000005 61.43208 47.26718000000001 60.54246 L 43.972510000000014 52.76005 z M 35.97572000000001 52.939020000000006 C 34.99670000000001 52.939020000000006 34.20534000000001 53.71744 34.20534000000001 54.676550000000006 L 34.21242000000001 63.10533000000001 C 34.21242000000001 64.06619 35.00732000000001 64.84113 35.98280000000001 64.84113 C 36.96182000000001 64.84113 37.753180000000015 64.06271000000001 37.74963000000001 63.10360000000001 L 37.74432000000001 54.67309000000001 C 37.74432000000001 53.71745000000001 36.94942000000001 52.93729000000001 35.97572000000001 52.93903000000001 z M 30.28219000000001 51.83395000000001 C 29.37930000000001 51.46907000000001 28.345400000000012 51.88781000000001 27.97008000000001 52.77743000000001 L 24.69134000000001 60.56679000000001 C 24.31956000000001 61.454670000000014 24.749760000000013 62.47113000000001 25.652650000000012 62.837750000000014 C 25.87395000000001 62.928100000000015 26.102330000000013 62.96980000000001 26.32893000000001 62.96980000000001 C 27.02292000000001 62.96980000000001 27.68327000000001 62.563220000000015 27.96476000000001 61.89427000000001 L 31.24527000000001 54.101430000000015 C 31.61882000000001 53.21529000000002 31.186850000000007 52.20057000000001 30.282190000000007 51.833950000000016 z M 25.45615000000001 48.67685000000001 C 24.762160000000012 47.99747000000001 23.64152000000001 48.00095000000001 22.951070000000012 48.68033000000001 L 16.885760000000012 54.645280000000014 C 16.193540000000013 55.32639000000001 16.19708000000001 56.42278000000002 16.889300000000013 57.103890000000014 C 17.234520000000014 57.440970000000014 17.68597000000001 57.61125000000001 18.139180000000014 57.61125000000001 C 18.594170000000013 57.61125000000001 19.047380000000015 57.440970000000014 19.392610000000015 57.102150000000016 L 25.459690000000016 51.135460000000016 C 26.148370000000018 50.456080000000014 26.148370000000018 49.35623000000002 25.456150000000015 48.676850000000016 z M 22.22699000000001 43.94902000000001 C 21.849900000000012 43.06462000000001 20.81600000000001 42.64413000000001 19.91311000000001 43.01075000000001 L 11.98360000000001 46.24430000000001 C 11.07894000000001 46.61266000000001 10.65228000000001 47.63085000000001 11.02760000000001 48.51699000000001 C 11.31086000000001 49.18594000000001 11.96767000000001 49.58731000000001 12.66343000000001 49.58731000000001 C 12.888270000000011 49.58731000000001 13.12019000000001 49.54561000000001 13.341480000000011 49.45526000000001 L 21.270990000000012 46.22171000000001 C 22.17211000000001 45.849880000000006 22.600540000000013 44.83342000000001 22.22699000000001 43.94902000000001 z M 21.08333000000001 38.368060000000014 C 21.08333000000001 37.40720000000002 20.29197000000001 36.63226000000002 19.31295000000001 36.63226000000002 L 10.724860000000012 36.642690000000016 C 9.745840000000012 36.642690000000016 8.952710000000012 37.42111000000001 8.956260000000013 38.381960000000014 C 8.958030000000013 39.339340000000014 9.751160000000013 40.11949000000001 10.726640000000012 40.11602000000001 L 19.316500000000012 40.105590000000014 C 20.293750000000014 40.105590000000014 21.08688000000001 39.32370000000002 21.08333000000001 38.368060000000014 z M 11.95528000000001 30.509190000000014 L 19.895410000000012 33.723630000000014 C 20.116710000000012 33.81572000000001 20.345090000000013 33.855680000000014 20.569920000000014 33.855680000000014 C 21.265680000000014 33.855680000000014 21.926030000000015 33.452570000000016 22.207520000000013 32.781880000000015 C 22.58284000000001 31.894000000000016 22.150870000000012 30.875810000000016 21.24444000000001 30.512660000000015 L 13.307850000000013 27.298220000000015 C 12.403190000000013 26.933340000000015 11.369290000000012 27.353820000000013 10.995740000000012 28.239960000000014 C 10.620420000000012 29.127840000000013 11.054160000000012 30.140820000000016 11.955280000000013 30.509180000000015 z M 22.91921000000001 28.045370000000013 C 23.26443000000001 28.38071000000001 23.71411000000001 28.550990000000013 24.16732000000001 28.550990000000013 C 24.620530000000013 28.550990000000013 25.07552000000001 28.380710000000015 25.42252000000001 28.038420000000013 C 26.11474000000001 27.362520000000014 26.11120000000001 26.260920000000013 25.41544000000001 25.581550000000014 L 19.33597000000001 19.632230000000014 C 18.645520000000012 18.954590000000014 17.52134000000001 18.958070000000014 16.83266000000001 19.637440000000016 C 16.140440000000012 20.315080000000016 16.14398000000001 21.416670000000018 16.836200000000012 22.094310000000014 L 22.919210000000014 28.045360000000016 z M 27.92406000000001 23.932630000000014 C 28.20732000000001 24.599840000000015 28.86590000000001 25.001210000000015 29.558120000000013 25.001210000000015 C 29.784730000000014 25.001210000000015 30.014880000000012 24.957770000000014 30.237940000000012 24.867420000000013 C 31.140830000000012 24.499060000000014 31.57103000000001 23.480870000000014 31.193940000000012 22.596460000000015 L 27.89396000000001 14.814050000000016 C 27.518640000000012 13.927910000000017 26.481200000000012 13.509160000000016 25.57831000000001 13.877520000000017 C 24.67542000000001 14.247610000000016 24.248760000000008 15.265810000000016 24.62408000000001 16.150210000000015 L 27.92406000000001 23.932620000000014 z" stroke-linecap="round" />
</g>
</g>
</g>
</svg>